<?xml version="1.0" encoding="UTF-8" standalone="no"?>
<!DOCTYPE svg PUBLIC "-//W3C//DTD SVG 1.1//EN"
 "http://www.w3.org/Graphics/SVG/1.1/DTD/svg11.dtd">
<!-- Generated by graphviz version 2.34.0 (20131025.1729)
 -->
<!-- Title: controllers_diagram Pages: 1 -->
<svg width="995pt" height="1206pt"
 viewBox="0.00 0.00 994.55 1205.61" xmlns="http://www.w3.org/2000/svg" xmlns:xlink="http://www.w3.org/1999/xlink">
<g id="graph0" class="graph" transform="scale(1 1) rotate(0) translate(4 1201.61)">
<title>controllers_diagram</title>
<polygon fill="white" stroke="white" points="-4,4 -4,-1201.61 990.547,-1201.61 990.547,4 -4,4"/>
<!-- _diagram_info -->
<g id="node1" class="node"><title>_diagram_info</title>
<text text-anchor="start" x="588" y="-185" font-family="Times,serif" font-size="13.00">Controllers diagram</text>
<text text-anchor="start" x="588" y="-169.4" font-family="Times,serif" font-size="13.00">Date: Oct 28 2013 &#45; 13:49</text>
<text text-anchor="start" x="588" y="-153.8" font-family="Times,serif" font-size="13.00">Migration version: 20131027011902</text>
<text text-anchor="start" x="588" y="-138.2" font-family="Times,serif" font-size="13.00">Generated by RailRoady 1.1.1</text>
<text text-anchor="start" x="588" y="-122.6" font-family="Times,serif" font-size="13.00">http://railroady.prestonlee.com</text>
</g>
<!-- AnswersController -->
<g id="node2" class="node"><title>AnswersController</title>
<path fill="none" stroke="black" d="M39.5209,-17.8949C39.5209,-17.8949 138.059,-17.8949 138.059,-17.8949 144.059,-17.8949 150.059,-23.8949 150.059,-29.8949 150.059,-29.8949 150.059,-238.695 150.059,-238.695 150.059,-244.695 144.059,-250.695 138.059,-250.695 138.059,-250.695 39.5209,-250.695 39.5209,-250.695 33.5209,-250.695 27.5209,-244.695 27.5209,-238.695 27.5209,-238.695 27.5209,-29.8949 27.5209,-29.8949 27.5209,-23.8949 33.5209,-17.8949 39.5209,-17.8949"/>
<text text-anchor="middle" x="88.79" y="-232.695" font-family="Times,serif" font-size="14.00">AnswersController</text>
<polyline fill="none" stroke="black" points="27.5209,-225.895 150.059,-225.895 "/>
<text text-anchor="start" x="35.5209" y="-207.895" font-family="Times,serif" font-size="14.00">create</text>
<text text-anchor="start" x="35.5209" y="-191.095" font-family="Times,serif" font-size="14.00">destroy</text>
<text text-anchor="start" x="35.5209" y="-174.295" font-family="Times,serif" font-size="14.00">edit</text>
<text text-anchor="start" x="35.5209" y="-157.495" font-family="Times,serif" font-size="14.00">index</text>
<text text-anchor="start" x="35.5209" y="-140.695" font-family="Times,serif" font-size="14.00">new</text>
<text text-anchor="start" x="35.5209" y="-123.895" font-family="Times,serif" font-size="14.00">show</text>
<text text-anchor="start" x="35.5209" y="-107.095" font-family="Times,serif" font-size="14.00">update</text>
<polyline fill="none" stroke="black" points="27.5209,-100.295 150.059,-100.295 "/>
<polyline fill="none" stroke="black" points="27.5209,-76.2949 150.059,-76.2949 "/>
<text text-anchor="start" x="35.5209" y="-58.2949" font-family="Times,serif" font-size="14.00">_layout</text>
<text text-anchor="start" x="35.5209" y="-41.4949" font-family="Times,serif" font-size="14.00">answer_params</text>
<text text-anchor="start" x="35.5209" y="-24.6949" font-family="Times,serif" font-size="14.00">set_answer</text>
</g>
<!-- ApplicationController -->
<g id="node3" class="node"><title>ApplicationController</title>
<path fill="none" stroke="black" d="M82.3785,-333.297C82.3785,-333.297 256.31,-333.297 256.31,-333.297 262.31,-333.297 268.31,-339.297 268.31,-345.297 268.31,-345.297 268.31,-436.497 268.31,-436.497 268.31,-442.497 262.31,-448.497 256.31,-448.497 256.31,-448.497 82.3785,-448.497 82.3785,-448.497 76.3785,-448.497 70.3785,-442.497 70.3785,-436.497 70.3785,-436.497 70.3785,-345.297 70.3785,-345.297 70.3785,-339.297 76.3785,-333.297 82.3785,-333.297"/>
<text text-anchor="middle" x="169.344" y="-430.497" font-family="Times,serif" font-size="14.00">ApplicationController</text>
<polyline fill="none" stroke="black" points="70.3785,-423.697 268.31,-423.697 "/>
<text text-anchor="start" x="78.3785" y="-405.697" font-family="Times,serif" font-size="14.00">check_auth_token</text>
<text text-anchor="start" x="78.3785" y="-388.897" font-family="Times,serif" font-size="14.00">configure_permitted_parameters</text>
<polyline fill="none" stroke="black" points="70.3785,-382.097 268.31,-382.097 "/>
<polyline fill="none" stroke="black" points="70.3785,-358.097 268.31,-358.097 "/>
<text text-anchor="start" x="78.3785" y="-340.097" font-family="Times,serif" font-size="14.00">_layout</text>
</g>
<!-- ApplicationController&#45;&gt;AnswersController -->
<g id="edge1" class="edge"><title>ApplicationController&#45;&gt;AnswersController</title>
<path fill="none" stroke="black" d="M151.166,-332.991C143.958,-310.03 135.382,-282.713 126.932,-255.796"/>
<polyline fill="none" stroke="black" points="125.356,-250.776 126.854,-255.546 "/>
</g>
<!-- OfferingsController -->
<g id="node7" class="node"><title>OfferingsController</title>
<path fill="none" stroke="black" d="M398.932,-0.5C398.932,-0.5 501.879,-0.5 501.879,-0.5 507.879,-0.5 513.879,-6.5 513.879,-12.5 513.879,-12.5 513.879,-221.3 513.879,-221.3 513.879,-227.3 507.879,-233.3 501.879,-233.3 501.879,-233.3 398.932,-233.3 398.932,-233.3 392.932,-233.3 386.932,-227.3 386.932,-221.3 386.932,-221.3 386.932,-12.5 386.932,-12.5 386.932,-6.5 392.932,-0.5 398.932,-0.5"/>
<text text-anchor="middle" x="450.406" y="-215.3" font-family="Times,serif" font-size="14.00">OfferingsController</text>
<polyline fill="none" stroke="black" points="386.932,-208.5 513.879,-208.5 "/>
<text text-anchor="start" x="394.932" y="-190.5" font-family="Times,serif" font-size="14.00">create</text>
<text text-anchor="start" x="394.932" y="-173.7" font-family="Times,serif" font-size="14.00">destroy</text>
<text text-anchor="start" x="394.932" y="-156.9" font-family="Times,serif" font-size="14.00">edit</text>
<text text-anchor="start" x="394.932" y="-140.1" font-family="Times,serif" font-size="14.00">index</text>
<text text-anchor="start" x="394.932" y="-123.3" font-family="Times,serif" font-size="14.00">new</text>
<text text-anchor="start" x="394.932" y="-106.5" font-family="Times,serif" font-size="14.00">show</text>
<text text-anchor="start" x="394.932" y="-89.7" font-family="Times,serif" font-size="14.00">update</text>
<polyline fill="none" stroke="black" points="386.932,-82.9 513.879,-82.9 "/>
<polyline fill="none" stroke="black" points="386.932,-58.9 513.879,-58.9 "/>
<text text-anchor="start" x="394.932" y="-40.9" font-family="Times,serif" font-size="14.00">_layout</text>
<text text-anchor="start" x="394.932" y="-24.1" font-family="Times,serif" font-size="14.00">offering_params</text>
<text text-anchor="start" x="394.932" y="-7.3" font-family="Times,serif" font-size="14.00">set_offering</text>
</g>
<!-- ApplicationController&#45;&gt;OfferingsController -->
<g id="edge5" class="edge"><title>ApplicationController&#45;&gt;OfferingsController</title>
<path fill="none" stroke="black" d="M228.607,-333.124C273.813,-289.054 336.114,-228.32 383.179,-182.437"/>
<polyline fill="none" stroke="black" points="386.826,-178.882 383.246,-182.372 "/>
</g>
<!-- QuestionsController -->
<g id="node8" class="node"><title>QuestionsController</title>
<path fill="none" stroke="black" d="M394.137,-555.493C394.137,-555.493 499.682,-555.493 499.682,-555.493 505.682,-555.493 511.682,-561.493 511.682,-567.493 511.682,-567.493 511.682,-776.293 511.682,-776.293 511.682,-782.293 505.682,-788.293 499.682,-788.293 499.682,-788.293 394.137,-788.293 394.137,-788.293 388.137,-788.293 382.137,-782.293 382.137,-776.293 382.137,-776.293 382.137,-567.493 382.137,-567.493 382.137,-561.493 388.137,-555.493 394.137,-555.493"/>
<text text-anchor="middle" x="446.909" y="-770.293" font-family="Times,serif" font-size="14.00">QuestionsController</text>
<polyline fill="none" stroke="black" points="382.137,-763.493 511.682,-763.493 "/>
<text text-anchor="start" x="390.137" y="-745.493" font-family="Times,serif" font-size="14.00">create</text>
<text text-anchor="start" x="390.137" y="-728.693" font-family="Times,serif" font-size="14.00">destroy</text>
<text text-anchor="start" x="390.137" y="-711.893" font-family="Times,serif" font-size="14.00">edit</text>
<text text-anchor="start" x="390.137" y="-695.093" font-family="Times,serif" font-size="14.00">index</text>
<text text-anchor="start" x="390.137" y="-678.293" font-family="Times,serif" font-size="14.00">new</text>
<text text-anchor="start" x="390.137" y="-661.493" font-family="Times,serif" font-size="14.00">show</text>
<text text-anchor="start" x="390.137" y="-644.693" font-family="Times,serif" font-size="14.00">update</text>
<polyline fill="none" stroke="black" points="382.137,-637.893 511.682,-637.893 "/>
<polyline fill="none" stroke="black" points="382.137,-613.893 511.682,-613.893 "/>
<text text-anchor="start" x="390.137" y="-595.893" font-family="Times,serif" font-size="14.00">_layout</text>
<text text-anchor="start" x="390.137" y="-579.093" font-family="Times,serif" font-size="14.00">question_params</text>
<text text-anchor="start" x="390.137" y="-562.293" font-family="Times,serif" font-size="14.00">set_question</text>
</g>
<!-- ApplicationController&#45;&gt;QuestionsController -->
<g id="edge6" class="edge"><title>ApplicationController&#45;&gt;QuestionsController</title>
<path fill="none" stroke="black" d="M226.519,-448.779C270.6,-493.404 331.716,-555.276 378.411,-602.548"/>
<polyline fill="none" stroke="black" points="382.03,-606.212 378.517,-602.655 "/>
</g>
<!-- UserEnrollmentsController -->
<g id="node9" class="node"><title>UserEnrollmentsController</title>
<path fill="none" stroke="black" d="M425.936,-264.222C425.936,-264.222 570.35,-264.222 570.35,-264.222 576.35,-264.222 582.35,-270.222 582.35,-276.222 582.35,-276.222 582.35,-518.622 582.35,-518.622 582.35,-524.622 576.35,-530.622 570.35,-530.622 570.35,-530.622 425.936,-530.622 425.936,-530.622 419.936,-530.622 413.936,-524.622 413.936,-518.622 413.936,-518.622 413.936,-276.222 413.936,-276.222 413.936,-270.222 419.936,-264.222 425.936,-264.222"/>
<text text-anchor="middle" x="498.143" y="-512.622" font-family="Times,serif" font-size="14.00">UserEnrollmentsController</text>
<polyline fill="none" stroke="black" points="413.936,-505.822 582.35,-505.822 "/>
<text text-anchor="start" x="421.936" y="-487.822" font-family="Times,serif" font-size="14.00">create</text>
<text text-anchor="start" x="421.936" y="-471.022" font-family="Times,serif" font-size="14.00">delete_user</text>
<text text-anchor="start" x="421.936" y="-454.222" font-family="Times,serif" font-size="14.00">destroy</text>
<text text-anchor="start" x="421.936" y="-437.422" font-family="Times,serif" font-size="14.00">edit</text>
<text text-anchor="start" x="421.936" y="-420.622" font-family="Times,serif" font-size="14.00">index</text>
<text text-anchor="start" x="421.936" y="-403.822" font-family="Times,serif" font-size="14.00">new</text>
<text text-anchor="start" x="421.936" y="-387.022" font-family="Times,serif" font-size="14.00">show</text>
<text text-anchor="start" x="421.936" y="-370.222" font-family="Times,serif" font-size="14.00">update</text>
<polyline fill="none" stroke="black" points="413.936,-363.422 582.35,-363.422 "/>
<polyline fill="none" stroke="black" points="413.936,-339.422 582.35,-339.422 "/>
<text text-anchor="start" x="421.936" y="-321.422" font-family="Times,serif" font-size="14.00">_layout</text>
<text text-anchor="start" x="421.936" y="-304.622" font-family="Times,serif" font-size="14.00">check_logged_in_user</text>
<text text-anchor="start" x="421.936" y="-287.822" font-family="Times,serif" font-size="14.00">set_user_enrollment</text>
<text text-anchor="start" x="421.936" y="-271.022" font-family="Times,serif" font-size="14.00">user_enrollment_params</text>
</g>
<!-- ApplicationController&#45;&gt;UserEnrollmentsController -->
<g id="edge7" class="edge"><title>ApplicationController&#45;&gt;UserEnrollmentsController</title>
<path fill="none" stroke="black" d="M268.441,-392.864C312.957,-393.747 365.102,-394.782 408.447,-395.642"/>
<polyline fill="none" stroke="black" points="413.688,-395.746 408.689,-395.647 "/>
</g>
<!-- UserQuestionSetsController -->
<g id="node10" class="node"><title>UserQuestionSetsController</title>
<path fill="none" stroke="black" d="M12,-531.827C12,-531.827 161.869,-531.827 161.869,-531.827 167.869,-531.827 173.869,-537.827 173.869,-543.827 173.869,-543.827 173.869,-752.627 173.869,-752.627 173.869,-758.627 167.869,-764.627 161.869,-764.627 161.869,-764.627 12,-764.627 12,-764.627 6,-764.627 0,-758.627 0,-752.627 0,-752.627 0,-543.827 0,-543.827 0,-537.827 6,-531.827 12,-531.827"/>
<text text-anchor="middle" x="86.9346" y="-746.627" font-family="Times,serif" font-size="14.00">UserQuestionSetsController</text>
<polyline fill="none" stroke="black" points="0,-739.827 173.869,-739.827 "/>
<text text-anchor="start" x="8" y="-721.827" font-family="Times,serif" font-size="14.00">create</text>
<text text-anchor="start" x="8" y="-705.027" font-family="Times,serif" font-size="14.00">destroy</text>
<text text-anchor="start" x="8" y="-688.227" font-family="Times,serif" font-size="14.00">edit</text>
<text text-anchor="start" x="8" y="-671.427" font-family="Times,serif" font-size="14.00">index</text>
<text text-anchor="start" x="8" y="-654.627" font-family="Times,serif" font-size="14.00">new</text>
<text text-anchor="start" x="8" y="-637.827" font-family="Times,serif" font-size="14.00">show</text>
<text text-anchor="start" x="8" y="-621.027" font-family="Times,serif" font-size="14.00">update</text>
<polyline fill="none" stroke="black" points="0,-614.227 173.869,-614.227 "/>
<polyline fill="none" stroke="black" points="0,-590.227 173.869,-590.227 "/>
<text text-anchor="start" x="8" y="-572.227" font-family="Times,serif" font-size="14.00">_layout</text>
<text text-anchor="start" x="8" y="-555.427" font-family="Times,serif" font-size="14.00">set_user_question_set</text>
<text text-anchor="start" x="8" y="-538.627" font-family="Times,serif" font-size="14.00">user_question_set_params</text>
</g>
<!-- ApplicationController&#45;&gt;UserQuestionSetsController -->
<g id="edge8" class="edge"><title>ApplicationController&#45;&gt;UserQuestionSetsController</title>
<path fill="none" stroke="black" d="M150.85,-448.647C143.434,-471.804 134.591,-499.418 125.882,-526.611"/>
<polyline fill="none" stroke="black" points="124.258,-531.682 125.783,-526.92 "/>
</g>
<!-- Devise::ConfirmationsController -->
<g id="node4" class="node"><title>Devise::ConfirmationsController</title>
<path fill="none" stroke="black" d="M476,-867.983C476,-867.983 760.373,-867.983 760.373,-867.983 766.373,-867.983 772.373,-873.983 772.373,-879.983 772.373,-879.983 772.373,-1005.58 772.373,-1005.58 772.373,-1011.58 766.373,-1017.58 760.373,-1017.58 760.373,-1017.58 476,-1017.58 476,-1017.58 470,-1017.58 464,-1011.58 464,-1005.58 464,-1005.58 464,-879.983 464,-879.983 464,-873.983 470,-867.983 476,-867.983"/>
<text text-anchor="middle" x="618.187" y="-999.583" font-family="Times,serif" font-size="14.00">Devise::ConfirmationsController</text>
<polyline fill="none" stroke="black" points="464,-992.783 772.373,-992.783 "/>
<text text-anchor="start" x="472" y="-974.783" font-family="Times,serif" font-size="14.00">create</text>
<text text-anchor="start" x="472" y="-957.983" font-family="Times,serif" font-size="14.00">new</text>
<text text-anchor="start" x="472" y="-941.183" font-family="Times,serif" font-size="14.00">show</text>
<polyline fill="none" stroke="black" points="464,-934.383 772.373,-934.383 "/>
<text text-anchor="start" x="472" y="-916.383" font-family="Times,serif" font-size="14.00">after_confirmation_path_for</text>
<text text-anchor="start" x="472" y="-899.583" font-family="Times,serif" font-size="14.00">after_resending_confirmation_instructions_path_for</text>
<polyline fill="none" stroke="black" points="464,-892.783 772.373,-892.783 "/>
<text text-anchor="start" x="472" y="-874.783" font-family="Times,serif" font-size="14.00">_layout</text>
</g>
<!-- Devise::RegistrationsController -->
<g id="node5" class="node"><title>Devise::RegistrationsController</title>
<path fill="none" stroke="black" d="M798.946,-862.71C798.946,-862.71 973.664,-862.71 973.664,-862.71 979.664,-862.71 985.664,-868.71 985.664,-874.71 985.664,-874.71 985.664,-1185.11 985.664,-1185.11 985.664,-1191.11 979.664,-1197.11 973.664,-1197.11 973.664,-1197.11 798.946,-1197.11 798.946,-1197.11 792.946,-1197.11 786.946,-1191.11 786.946,-1185.11 786.946,-1185.11 786.946,-874.71 786.946,-874.71 786.946,-868.71 792.946,-862.71 798.946,-862.71"/>
<text text-anchor="middle" x="886.305" y="-1179.11" font-family="Times,serif" font-size="14.00">Devise::RegistrationsController</text>
<polyline fill="none" stroke="black" points="786.946,-1172.31 985.664,-1172.31 "/>
<text text-anchor="start" x="794.946" y="-1154.31" font-family="Times,serif" font-size="14.00">cancel</text>
<text text-anchor="start" x="794.946" y="-1137.51" font-family="Times,serif" font-size="14.00">create</text>
<text text-anchor="start" x="794.946" y="-1120.71" font-family="Times,serif" font-size="14.00">destroy</text>
<text text-anchor="start" x="794.946" y="-1103.91" font-family="Times,serif" font-size="14.00">edit</text>
<text text-anchor="start" x="794.946" y="-1087.11" font-family="Times,serif" font-size="14.00">new</text>
<text text-anchor="start" x="794.946" y="-1070.31" font-family="Times,serif" font-size="14.00">update</text>
<polyline fill="none" stroke="black" points="786.946,-1063.51 985.664,-1063.51 "/>
<text text-anchor="start" x="794.946" y="-1045.51" font-family="Times,serif" font-size="14.00">account_update_params</text>
<text text-anchor="start" x="794.946" y="-1028.71" font-family="Times,serif" font-size="14.00">after_inactive_sign_up_path_for</text>
<text text-anchor="start" x="794.946" y="-1011.91" font-family="Times,serif" font-size="14.00">after_sign_up_path_for</text>
<text text-anchor="start" x="794.946" y="-995.11" font-family="Times,serif" font-size="14.00">after_update_path_for</text>
<text text-anchor="start" x="794.946" y="-978.31" font-family="Times,serif" font-size="14.00">authenticate_scope!</text>
<text text-anchor="start" x="794.946" y="-961.51" font-family="Times,serif" font-size="14.00">build_resource</text>
<text text-anchor="start" x="794.946" y="-944.71" font-family="Times,serif" font-size="14.00">sign_up</text>
<text text-anchor="start" x="794.946" y="-927.91" font-family="Times,serif" font-size="14.00">sign_up_params</text>
<text text-anchor="start" x="794.946" y="-911.11" font-family="Times,serif" font-size="14.00">update_needs_confirmation?</text>
<text text-anchor="start" x="794.946" y="-894.31" font-family="Times,serif" font-size="14.00">update_resource</text>
<polyline fill="none" stroke="black" points="786.946,-887.51 985.664,-887.51 "/>
<text text-anchor="start" x="794.946" y="-869.51" font-family="Times,serif" font-size="14.00">_layout</text>
</g>
<!-- Devise::SessionsController -->
<g id="node6" class="node"><title>Devise::SessionsController</title>
<path fill="none" stroke="black" d="M663.556,-580.5C663.556,-580.5 807.991,-580.5 807.991,-580.5 813.991,-580.5 819.991,-586.5 819.991,-592.5 819.991,-592.5 819.991,-768.5 819.991,-768.5 819.991,-774.5 813.991,-780.5 807.991,-780.5 807.991,-780.5 663.556,-780.5 663.556,-780.5 657.556,-780.5 651.556,-774.5 651.556,-768.5 651.556,-768.5 651.556,-592.5 651.556,-592.5 651.556,-586.5 657.556,-580.5 663.556,-580.5"/>
<text text-anchor="middle" x="735.774" y="-762.5" font-family="Times,serif" font-size="14.00">Devise::SessionsController</text>
<polyline fill="none" stroke="black" points="651.556,-755.7 819.991,-755.7 "/>
<text text-anchor="start" x="659.556" y="-737.7" font-family="Times,serif" font-size="14.00">_callback_before_11</text>
<text text-anchor="start" x="659.556" y="-720.9" font-family="Times,serif" font-size="14.00">create</text>
<text text-anchor="start" x="659.556" y="-704.1" font-family="Times,serif" font-size="14.00">destroy</text>
<text text-anchor="start" x="659.556" y="-687.3" font-family="Times,serif" font-size="14.00">new</text>
<polyline fill="none" stroke="black" points="651.556,-680.5 819.991,-680.5 "/>
<text text-anchor="start" x="659.556" y="-662.5" font-family="Times,serif" font-size="14.00">auth_options</text>
<text text-anchor="start" x="659.556" y="-645.7" font-family="Times,serif" font-size="14.00">invalid_login_attempt</text>
<text text-anchor="start" x="659.556" y="-628.9" font-family="Times,serif" font-size="14.00">serialize_options</text>
<text text-anchor="start" x="659.556" y="-612.1" font-family="Times,serif" font-size="14.00">sign_in_params</text>
<polyline fill="none" stroke="black" points="651.556,-605.3 819.991,-605.3 "/>
<text text-anchor="start" x="659.556" y="-587.3" font-family="Times,serif" font-size="14.00">_layout</text>
</g>
<!-- DeviseController -->
<g id="node11" class="node"><title>DeviseController</title>
<ellipse fill="none" stroke="black" cx="909.001" cy="-808.663" rx="77.5918" ry="18"/>
<text text-anchor="middle" x="909.001" y="-803.063" font-family="Times,serif" font-size="14.00">DeviseController</text>
</g>
<!-- DeviseController&#45;&gt;Devise::ConfirmationsController -->
<g id="edge2" class="edge"><title>DeviseController&#45;&gt;Devise::ConfirmationsController</title>
<path fill="none" stroke="black" d="M868.602,-824.11C843.888,-833.794 811.745,-846.811 783.746,-859.51 779.241,-861.554 774.68,-863.652 770.086,-865.791"/>
<polyline fill="none" stroke="black" points="765.481,-867.944 770.011,-865.826 "/>
</g>
<!-- DeviseController&#45;&gt;Devise::RegistrationsController -->
<g id="edge3" class="edge"><title>DeviseController&#45;&gt;Devise::RegistrationsController</title>
<path fill="none" stroke="black" d="M907.144,-826.769C906.31,-834.896 905.24,-845.329 904.026,-857.166"/>
<polyline fill="none" stroke="black" points="903.497,-862.322 904.007,-857.349 "/>
</g>
<!-- DeviseController&#45;&gt;Devise::SessionsController -->
<g id="edge4" class="edge"><title>DeviseController&#45;&gt;Devise::SessionsController</title>
<path fill="none" stroke="black" d="M885.639,-791.379C869.555,-779.479 847.073,-762.845 824.406,-746.075"/>
<polyline fill="none" stroke="black" points="820.173,-742.943 824.193,-745.917 "/>
</g>
</g>
</svg>
