<?xml version="1.0" encoding="UTF-8" standalone="no"?>
<!DOCTYPE svg PUBLIC "-//W3C//DTD SVG 1.1//EN"
 "http://www.w3.org/Graphics/SVG/1.1/DTD/svg11.dtd">
<!-- Generated by graphviz version 2.34.0 (20131025.1729)
 -->
<!-- Title: controllers_diagram Pages: 1 -->
<svg width="1088pt" height="366pt"
 viewBox="0.00 0.00 1088.24 366.00" xmlns="http://www.w3.org/2000/svg" xmlns:xlink="http://www.w3.org/1999/xlink">
<g id="graph0" class="graph" transform="scale(1 1) rotate(0) translate(4 362)">
<title>controllers_diagram</title>
<polygon fill="white" stroke="white" points="-4,4 -4,-362 1084.24,-362 1084.24,4 -4,4"/>
<!-- _diagram_info -->
<g id="node1" class="node"><title>_diagram_info</title>
<text text-anchor="start" x="178" y="-341" font-family="Times,serif" font-size="13.00">Controllers diagram</text>
<text text-anchor="start" x="178" y="-325.4" font-family="Times,serif" font-size="13.00">Date: Oct 28 2013 &#45; 13:49</text>
<text text-anchor="start" x="178" y="-309.8" font-family="Times,serif" font-size="13.00">Migration version: 20131027011902</text>
<text text-anchor="start" x="178" y="-294.2" font-family="Times,serif" font-size="13.00">Generated by RailRoady 1.1.1</text>
<text text-anchor="start" x="178" y="-278.6" font-family="Times,serif" font-size="13.00">http://railroady.prestonlee.com</text>
</g>
<!-- AnswersController -->
<g id="node2" class="node"><title>AnswersController</title>
<ellipse fill="none" stroke="black" cx="98.3728" cy="-31.748" rx="84.5491" ry="18"/>
<text text-anchor="middle" x="98.3728" y="-26.148" font-family="Times,serif" font-size="14.00">AnswersController</text>
</g>
<!-- ApplicationController -->
<g id="node3" class="node"><title>ApplicationController</title>
<ellipse fill="none" stroke="black" cx="283.495" cy="-42.3823" rx="96.1448" ry="18"/>
<text text-anchor="middle" x="283.495" y="-36.7823" font-family="Times,serif" font-size="14.00">ApplicationController</text>
</g>
<!-- ApplicationController&#45;&gt;AnswersController -->
<g id="edge1" class="edge"><title>ApplicationController&#45;&gt;AnswersController</title>
<path fill="none" stroke="black" d="M191.205,-37.0808C189.232,-36.9674 187.26,-36.8541 185.29,-36.741"/>
<polyline fill="none" stroke="black" points="180.087,-36.4421 185.079,-36.729 "/>
</g>
<!-- OfferingsController -->
<g id="node7" class="node"><title>OfferingsController</title>
<ellipse fill="none" stroke="black" cx="487.189" cy="-18" rx="87.6319" ry="18"/>
<text text-anchor="middle" x="487.189" y="-12.4" font-family="Times,serif" font-size="14.00">OfferingsController</text>
</g>
<!-- ApplicationController&#45;&gt;OfferingsController -->
<g id="edge5" class="edge"><title>ApplicationController&#45;&gt;OfferingsController</title>
<path fill="none" stroke="black" d="M364.879,-32.6407C378.498,-31.0104 392.627,-29.3191 406.236,-27.6901"/>
<polyline fill="none" stroke="black" points="411.225,-27.093 406.26,-27.6874 "/>
</g>
<!-- QuestionsController -->
<g id="node8" class="node"><title>QuestionsController</title>
<ellipse fill="none" stroke="black" cx="349.189" cy="-194.981" rx="89.2157" ry="18"/>
<text text-anchor="middle" x="349.189" y="-189.381" font-family="Times,serif" font-size="14.00">QuestionsController</text>
</g>
<!-- ApplicationController&#45;&gt;QuestionsController -->
<g id="edge6" class="edge"><title>ApplicationController&#45;&gt;QuestionsController</title>
<path fill="none" stroke="black" d="M291.289,-60.4867C303.29,-88.3643 326.277,-141.76 339.389,-172.217"/>
<polyline fill="none" stroke="black" points="341.405,-176.9 339.428,-172.308 "/>
</g>
<!-- UserEnrollmentsController -->
<g id="node9" class="node"><title>UserEnrollmentsController</title>
<ellipse fill="none" stroke="black" cx="550.772" cy="-163.865" rx="116.338" ry="18"/>
<text text-anchor="middle" x="550.772" y="-158.265" font-family="Times,serif" font-size="14.00">UserEnrollmentsController</text>
</g>
<!-- ApplicationController&#45;&gt;UserEnrollmentsController -->
<g id="edge7" class="edge"><title>ApplicationController&#45;&gt;UserEnrollmentsController</title>
<path fill="none" stroke="black" d="M320.378,-59.1464C369.588,-81.513 456.522,-121.026 508.378,-144.596"/>
<polyline fill="none" stroke="black" points="512.975,-146.685 508.423,-144.616 "/>
</g>
<!-- UserQuestionSetsController -->
<g id="node10" class="node"><title>UserQuestionSetsController</title>
<ellipse fill="none" stroke="black" cx="119.932" cy="-192.285" rx="119.864" ry="18"/>
<text text-anchor="middle" x="119.932" y="-186.685" font-family="Times,serif" font-size="14.00">UserQuestionSetsController</text>
</g>
<!-- ApplicationController&#45;&gt;UserQuestionSetsController -->
<g id="edge8" class="edge"><title>ApplicationController&#45;&gt;UserQuestionSetsController</title>
<path fill="none" stroke="black" d="M264.09,-60.1668C233.922,-87.8154 175.872,-141.016 143.396,-170.78"/>
<polyline fill="none" stroke="black" points="139.566,-174.29 143.252,-170.912 "/>
</g>
<!-- Devise::ConfirmationsController -->
<g id="node4" class="node"><title>Devise::ConfirmationsController</title>
<ellipse fill="none" stroke="black" cx="580.175" cy="-286.252" rx="138.351" ry="18"/>
<text text-anchor="middle" x="580.175" y="-280.652" font-family="Times,serif" font-size="14.00">Devise::ConfirmationsController</text>
</g>
<!-- Devise::RegistrationsController -->
<g id="node5" class="node"><title>Devise::RegistrationsController</title>
<ellipse fill="none" stroke="black" cx="946.368" cy="-301.618" rx="133.75" ry="18"/>
<text text-anchor="middle" x="946.368" y="-296.018" font-family="Times,serif" font-size="14.00">Devise::RegistrationsController</text>
</g>
<!-- Devise::SessionsController -->
<g id="node6" class="node"><title>Devise::SessionsController</title>
<ellipse fill="none" stroke="black" cx="814.603" cy="-222" rx="116.366" ry="18"/>
<text text-anchor="middle" x="814.603" y="-216.4" font-family="Times,serif" font-size="14.00">Devise::SessionsController</text>
</g>
<!-- DeviseController -->
<g id="node11" class="node"><title>DeviseController</title>
<ellipse fill="none" stroke="black" cx="748.347" cy="-328.062" rx="77.5918" ry="18"/>
<text text-anchor="middle" x="748.347" y="-322.462" font-family="Times,serif" font-size="14.00">DeviseController</text>
</g>
<!-- DeviseController&#45;&gt;Devise::ConfirmationsController -->
<g id="edge2" class="edge"><title>DeviseController&#45;&gt;Devise::ConfirmationsController</title>
<path fill="none" stroke="black" d="M695.137,-314.833C680.699,-311.244 664.85,-307.304 649.658,-303.527"/>
<polyline fill="none" stroke="black" points="644.534,-302.253 649.386,-303.459 "/>
</g>
<!-- DeviseController&#45;&gt;Devise::RegistrationsController -->
<g id="edge3" class="edge"><title>DeviseController&#45;&gt;Devise::RegistrationsController</title>
<path fill="none" stroke="black" d="M815.664,-319.072C825.493,-317.76 835.786,-316.385 846.099,-315.008"/>
<polyline fill="none" stroke="black" points="851.16,-314.332 846.204,-314.994 "/>
</g>
<!-- DeviseController&#45;&gt;Devise::SessionsController -->
<g id="edge4" class="edge"><title>DeviseController&#45;&gt;Devise::SessionsController</title>
<path fill="none" stroke="black" d="M759.587,-310.07C770.914,-291.938 788.42,-263.914 800.633,-244.363"/>
<polyline fill="none" stroke="black" points="803.309,-240.08 800.66,-244.321 "/>
</g>
</g>
</svg>
