<?xml version="1.0" encoding="UTF-8" standalone="no"?>
<!DOCTYPE svg PUBLIC "-//W3C//DTD SVG 1.1//EN"
 "http://www.w3.org/Graphics/SVG/1.1/DTD/svg11.dtd">
<!-- Generated by graphviz version 2.34.0 (20131025.1729)
 -->
<!-- Title: models_diagram Pages: 1 -->
<svg width="533pt" height="454pt"
 viewBox="0.00 0.00 533.05 454.00" xmlns="http://www.w3.org/2000/svg" xmlns:xlink="http://www.w3.org/1999/xlink">
<g id="graph0" class="graph" transform="scale(1 1) rotate(0) translate(4 450)">
<title>models_diagram</title>
<polygon fill="white" stroke="white" points="-4,4 -4,-450 529.046,-450 529.046,4 -4,4"/>
<!-- _diagram_info -->
<g id="node1" class="node"><title>_diagram_info</title>
<text text-anchor="start" x="7.55029" y="-429" font-family="Times,serif" font-size="13.00">Models diagram</text>
<text text-anchor="start" x="7.55029" y="-413.4" font-family="Times,serif" font-size="13.00">Date: Oct 28 2013 &#45; 13:48</text>
<text text-anchor="start" x="7.55029" y="-397.8" font-family="Times,serif" font-size="13.00">Migration version: 20131027011902</text>
<text text-anchor="start" x="7.55029" y="-382.2" font-family="Times,serif" font-size="13.00">Generated by RailRoady 1.1.1</text>
<text text-anchor="start" x="7.55029" y="-366.6" font-family="Times,serif" font-size="13.00">http://railroady.prestonlee.com</text>
</g>
<!-- Answer -->
<g id="node2" class="node"><title>Answer</title>
<ellipse fill="none" stroke="black" cx="345" cy="-18" rx="41.1096" ry="18"/>
<text text-anchor="middle" x="345" y="-12.4" font-family="Times,serif" font-size="14.00">Answer</text>
</g>
<!-- Offering -->
<g id="node3" class="node"><title>Offering</title>
<ellipse fill="none" stroke="black" cx="294" cy="-162" rx="44.1717" ry="18"/>
<text text-anchor="middle" x="294" y="-156.4" font-family="Times,serif" font-size="14.00">Offering</text>
</g>
<!-- Question -->
<g id="node4" class="node"><title>Question</title>
<ellipse fill="none" stroke="black" cx="345" cy="-90" rx="45.3604" ry="18"/>
<text text-anchor="middle" x="345" y="-84.4" font-family="Times,serif" font-size="14.00">Question</text>
</g>
<!-- Question&#45;&gt;Answer -->
<g id="edge3" class="edge"><title>Question&#45;&gt;Answer</title>
<path fill="none" stroke="#679a55" d="M345,-63.6398C345,-58.0629 345,-52.1319 345,-46.4761"/>
<ellipse fill="none" stroke="#679a55" cx="345" cy="-67.6966" rx="4" ry="4"/>
<polygon fill="#679a55" stroke="#679a55" points="345,-46.1043 349.5,-36.1043 345,-41.1043 345,-36.1043 345,-36.1043 345,-36.1043 345,-41.1043 340.5,-36.1044 345,-46.1043 345,-46.1043"/>
</g>
<!-- User -->
<g id="node5" class="node"><title>User</title>
<ellipse fill="none" stroke="black" cx="408" cy="-306" rx="28.9087" ry="18"/>
<text text-anchor="middle" x="408" y="-300.4" font-family="Times,serif" font-size="14.00">User</text>
</g>
<!-- User&#45;&gt;Answer -->
<g id="edge7" class="edge"><title>User&#45;&gt;Answer</title>
<path fill="none" stroke="#5ab039" d="M434.767,-287.933C475.793,-259.494 546.621,-199.991 518,-144 490.149,-89.5153 426.242,-53.3093 384.386,-34.4717"/>
<ellipse fill="none" stroke="#5ab039" cx="431.28" cy="-290.302" rx="4.00002" ry="4.00002"/>
<polygon fill="#5ab039" stroke="#5ab039" points="384.197,-34.3892 376.835,-26.2618 379.615,-32.3873 375.033,-30.3854 375.033,-30.3854 375.033,-30.3854 379.615,-32.3873 373.232,-34.509 384.197,-34.3892 384.197,-34.3892"/>
</g>
<!-- UserEnrollment -->
<g id="node6" class="node"><title>UserEnrollment</title>
<ellipse fill="none" stroke="black" cx="378" cy="-234" rx="72.5757" ry="18"/>
<text text-anchor="middle" x="378" y="-228.4" font-family="Times,serif" font-size="14.00">UserEnrollment</text>
</g>
<!-- User&#45;&gt;UserEnrollment -->
<g id="edge5" class="edge"><title>User&#45;&gt;UserEnrollment</title>
<path fill="none" stroke="#8fe614" d="M397.619,-280.778C394.693,-273.95 391.507,-266.516 388.57,-259.663"/>
<ellipse fill="none" stroke="#8fe614" cx="399.315" cy="-284.734" rx="4.00002" ry="4.00002"/>
<ellipse fill="#8fe614" stroke="#8fe614" cx="386.843" cy="-255.633" rx="4.00001" ry="4.00001"/>
</g>
<!-- UserQuestionSet -->
<g id="node7" class="node"><title>UserQuestionSet</title>
<ellipse fill="none" stroke="black" cx="433" cy="-162" rx="76.2204" ry="18"/>
<text text-anchor="middle" x="433" y="-156.4" font-family="Times,serif" font-size="14.00">UserQuestionSet</text>
</g>
<!-- User&#45;&gt;UserQuestionSet -->
<g id="edge6" class="edge"><title>User&#45;&gt;UserQuestionSet</title>
<path fill="none" stroke="#c5fdf3" d="M432.791,-286.501C442.953,-277.374 453.585,-265.437 459,-252 467.582,-230.705 458.531,-205.514 448.831,-187.377"/>
<ellipse fill="none" stroke="#c5fdf3" cx="429.618" cy="-289.211" rx="4.00002" ry="4.00002"/>
<ellipse fill="#c5fdf3" stroke="#c5fdf3" cx="446.658" cy="-183.547" rx="4.00002" ry="4.00002"/>
</g>
<!-- UserEnrollment&#45;&gt;Offering -->
<g id="edge9" class="edge"><title>UserEnrollment&#45;&gt;Offering</title>
<path fill="none" stroke="#88a657" d="M351.694,-211.079C341.786,-202.822 330.517,-193.431 320.584,-185.153"/>
<ellipse fill="none" stroke="#88a657" cx="355.02" cy="-213.85" rx="4.00002" ry="4.00002"/>
<polygon fill="#88a657" stroke="#88a657" points="320.295,-184.913 315.494,-175.054 316.454,-181.712 312.613,-178.511 312.613,-178.511 312.613,-178.511 316.454,-181.712 309.732,-181.968 320.295,-184.913 320.295,-184.913"/>
</g>
<!-- UserEnrollment&#45;&gt;UserQuestionSet -->
<g id="edge10" class="edge"><title>UserEnrollment&#45;&gt;UserQuestionSet</title>
<path fill="none" stroke="#df53b7" d="M396.416,-209.562C401.924,-202.552 407.979,-194.844 413.552,-187.753"/>
<ellipse fill="none" stroke="#df53b7" cx="393.785" cy="-212.91" rx="4.00002" ry="4.00002"/>
<polygon fill="#df53b7" stroke="#df53b7" points="413.63,-187.652 423.347,-182.569 416.72,-183.721 419.809,-179.789 419.809,-179.789 419.809,-179.789 416.72,-183.721 416.27,-177.009 413.63,-187.652 413.63,-187.652"/>
</g>
<!-- UserQuestionSet&#45;&gt;Question -->
<g id="edge12" class="edge"><title>UserQuestionSet&#45;&gt;Question</title>
<path fill="none" stroke="#1e25dc" d="M405.807,-139.369C395.261,-130.981 383.2,-121.386 372.615,-112.966"/>
<ellipse fill="none" stroke="#1e25dc" cx="409.015" cy="-141.921" rx="4.00002" ry="4.00002"/>
<polygon fill="#1e25dc" stroke="#1e25dc" points="372.325,-112.736 367.301,-102.989 368.412,-109.623 364.499,-106.511 364.499,-106.511 364.499,-106.511 368.412,-109.623 361.698,-110.033 372.325,-112.736 372.325,-112.736"/>
</g>
<!-- ActiveRecord::Base -->
<g id="node8" class="node"><title>ActiveRecord::Base</title>
<ellipse fill="none" stroke="black" cx="313" cy="-403" rx="88.2033" ry="18"/>
<text text-anchor="middle" x="313" y="-397.4" font-family="Times,serif" font-size="14.00">ActiveRecord::Base</text>
</g>
<!-- ActiveRecord::Base&#45;&gt;Answer -->
<g id="edge1" class="edge"><title>ActiveRecord::Base&#45;&gt;Answer</title>
<path fill="none" stroke="black" d="M287.821,-385.58C250.28,-358.882 184,-302.226 184,-235 184,-235 184,-235 184,-161 184,-94.7005 261.741,-51.9752 309.181,-32.0751"/>
<polyline fill="none" stroke="black" points="313.958,-30.1055 309.335,-32.0117 "/>
</g>
<!-- ActiveRecord::Base&#45;&gt;Offering -->
<g id="edge2" class="edge"><title>ActiveRecord::Base&#45;&gt;Offering</title>
<path fill="none" stroke="black" d="M310.559,-384.949C306.696,-357.168 299.278,-300.375 296,-252 294.466,-229.362 294.034,-203.418 293.944,-185.406"/>
<polyline fill="none" stroke="black" points="293.926,-180.083 293.943,-185.082 "/>
</g>
<!-- ActiveRecord::Base&#45;&gt;Question -->
<g id="edge4" class="edge"><title>ActiveRecord::Base&#45;&gt;Question</title>
<path fill="none" stroke="black" d="M299.636,-385.039C267.325,-341.83 191.192,-225.285 241,-144 254.239,-122.394 279.358,-109.25 301.592,-101.456"/>
<polyline fill="none" stroke="black" points="306.581,-99.7782 301.842,-101.372 "/>
</g>
<!-- ActiveRecord::Base&#45;&gt;User -->
<g id="edge8" class="edge"><title>ActiveRecord::Base&#45;&gt;User</title>
<path fill="none" stroke="black" d="M329.984,-385.016C346.755,-368.245 372.326,-342.674 389.579,-325.421"/>
<polyline fill="none" stroke="black" points="393.343,-321.657 389.808,-325.192 "/>
</g>
<!-- ActiveRecord::Base&#45;&gt;UserEnrollment -->
<g id="edge11" class="edge"><title>ActiveRecord::Base&#45;&gt;UserEnrollment</title>
<path fill="none" stroke="black" d="M319.711,-384.757C331.583,-354.256 356.268,-290.836 369.38,-257.147"/>
<polyline fill="none" stroke="black" points="371.228,-252.399 369.414,-257.059 "/>
</g>
<!-- ActiveRecord::Base&#45;&gt;UserQuestionSet -->
<g id="edge13" class="edge"><title>ActiveRecord::Base&#45;&gt;UserQuestionSet</title>
<path fill="none" stroke="black" d="M353.354,-386.856C382.585,-374.061 421.176,-353.138 446,-324 478.158,-286.255 490.031,-262.924 474,-216 469.919,-204.056 461.933,-192.716 454.084,-183.613"/>
<polyline fill="none" stroke="black" points="450.741,-179.854 454.064,-183.59 "/>
</g>
</g>
</svg>
