<?xml version="1.0" encoding="UTF-8" standalone="no"?>
<!DOCTYPE svg PUBLIC "-//W3C//DTD SVG 1.1//EN"
 "http://www.w3.org/Graphics/SVG/1.1/DTD/svg11.dtd">
<!-- Generated by graphviz version 2.34.0 (20131025.1729)
 -->
<!-- Title: models_diagram Pages: 1 -->
<svg width="679pt" height="1590pt"
 viewBox="0.00 0.00 679.07 1590.00" xmlns="http://www.w3.org/2000/svg" xmlns:xlink="http://www.w3.org/1999/xlink">
<g id="graph0" class="graph" transform="scale(1 1) rotate(0) translate(4 1586)">
<title>models_diagram</title>
<polygon fill="white" stroke="white" points="-4,4 -4,-1586 675.071,-1586 675.071,4 -4,4"/>
<!-- _diagram_info -->
<g id="node1" class="node"><title>_diagram_info</title>
<text text-anchor="start" x="7.55029" y="-1565" font-family="Times,serif" font-size="13.00">Models diagram</text>
<text text-anchor="start" x="7.55029" y="-1549.4" font-family="Times,serif" font-size="13.00">Date: Oct 28 2013 &#45; 13:48</text>
<text text-anchor="start" x="7.55029" y="-1533.8" font-family="Times,serif" font-size="13.00">Migration version: 20131027011902</text>
<text text-anchor="start" x="7.55029" y="-1518.2" font-family="Times,serif" font-size="13.00">Generated by RailRoady 1.1.1</text>
<text text-anchor="start" x="7.55029" y="-1502.6" font-family="Times,serif" font-size="13.00">http://railroady.prestonlee.com</text>
</g>
<!-- Answer -->
<g id="node2" class="node"><title>Answer</title>
<path fill="none" stroke="black" d="M311.495,-1.2C311.495,-1.2 420.505,-1.2 420.505,-1.2 426.505,-1.2 432.505,-7.2 432.505,-13.2 432.505,-13.2 432.505,-122.8 432.505,-122.8 432.505,-128.8 426.505,-134.8 420.505,-134.8 420.505,-134.8 311.495,-134.8 311.495,-134.8 305.495,-134.8 299.495,-128.8 299.495,-122.8 299.495,-122.8 299.495,-13.2 299.495,-13.2 299.495,-7.2 305.495,-1.2 311.495,-1.2"/>
<text text-anchor="middle" x="366" y="-116.8" font-family="Times,serif" font-size="14.00">Answer</text>
<polyline fill="none" stroke="black" points="299.495,-110 432.505,-110 "/>
<text text-anchor="start" x="307.495" y="-92" font-family="Times,serif" font-size="14.00">id :integer</text>
<text text-anchor="start" x="307.495" y="-75.2" font-family="Times,serif" font-size="14.00">user_id :integer</text>
<text text-anchor="start" x="307.495" y="-58.4" font-family="Times,serif" font-size="14.00">question_id :integer</text>
<text text-anchor="start" x="307.495" y="-41.6" font-family="Times,serif" font-size="14.00">body :text</text>
<text text-anchor="start" x="307.495" y="-24.8" font-family="Times,serif" font-size="14.00">created_at :datetime</text>
<text text-anchor="start" x="307.495" y="-8" font-family="Times,serif" font-size="14.00">updated_at :datetime</text>
</g>
<!-- Offering -->
<g id="node3" class="node"><title>Offering</title>
<path fill="none" stroke="black" d="M217.439,-377.2C217.439,-377.2 364.561,-377.2 364.561,-377.2 370.561,-377.2 376.561,-383.2 376.561,-389.2 376.561,-389.2 376.561,-666.8 376.561,-666.8 376.561,-672.8 370.561,-678.8 364.561,-678.8 364.561,-678.8 217.439,-678.8 217.439,-678.8 211.439,-678.8 205.439,-672.8 205.439,-666.8 205.439,-666.8 205.439,-389.2 205.439,-389.2 205.439,-383.2 211.439,-377.2 217.439,-377.2"/>
<text text-anchor="middle" x="291" y="-660.8" font-family="Times,serif" font-size="14.00">Offering</text>
<polyline fill="none" stroke="black" points="205.439,-654 376.561,-654 "/>
<text text-anchor="start" x="213.439" y="-636" font-family="Times,serif" font-size="14.00">id :integer</text>
<text text-anchor="start" x="213.439" y="-619.2" font-family="Times,serif" font-size="14.00">name :string</text>
<text text-anchor="start" x="213.439" y="-602.4" font-family="Times,serif" font-size="14.00">offering_type_id :integer</text>
<text text-anchor="start" x="213.439" y="-585.6" font-family="Times,serif" font-size="14.00">city_id :integer</text>
<text text-anchor="start" x="213.439" y="-568.8" font-family="Times,serif" font-size="14.00">description :text</text>
<text text-anchor="start" x="213.439" y="-552" font-family="Times,serif" font-size="14.00">location_id :integer</text>
<text text-anchor="start" x="213.439" y="-535.2" font-family="Times,serif" font-size="14.00">starts_at :datetime</text>
<text text-anchor="start" x="213.439" y="-518.4" font-family="Times,serif" font-size="14.00">ends_at :datetime</text>
<text text-anchor="start" x="213.439" y="-501.6" font-family="Times,serif" font-size="14.00">max_enrollment :integer</text>
<text text-anchor="start" x="213.439" y="-484.8" font-family="Times,serif" font-size="14.00">created_at :datetime</text>
<text text-anchor="start" x="213.439" y="-468" font-family="Times,serif" font-size="14.00">updated_at :datetime</text>
<text text-anchor="start" x="213.439" y="-451.2" font-family="Times,serif" font-size="14.00">deadline_at :datetime</text>
<text text-anchor="start" x="213.439" y="-434.4" font-family="Times,serif" font-size="14.00">tuition_cost :integer</text>
<text text-anchor="start" x="213.439" y="-417.6" font-family="Times,serif" font-size="14.00">deposit_cost :integer</text>
<text text-anchor="start" x="213.439" y="-400.8" font-family="Times,serif" font-size="14.00">code :string</text>
<text text-anchor="start" x="213.439" y="-384" font-family="Times,serif" font-size="14.00">user_enrollment_id :integer</text>
</g>
<!-- Question -->
<g id="node4" class="node"><title>Question</title>
<path fill="none" stroke="black" d="M287.767,-172.4C287.767,-172.4 444.233,-172.4 444.233,-172.4 450.233,-172.4 456.233,-178.4 456.233,-184.4 456.233,-184.4 456.233,-327.6 456.233,-327.6 456.233,-333.6 450.233,-339.6 444.233,-339.6 444.233,-339.6 287.767,-339.6 287.767,-339.6 281.767,-339.6 275.767,-333.6 275.767,-327.6 275.767,-327.6 275.767,-184.4 275.767,-184.4 275.767,-178.4 281.767,-172.4 287.767,-172.4"/>
<text text-anchor="middle" x="366" y="-321.6" font-family="Times,serif" font-size="14.00">Question</text>
<polyline fill="none" stroke="black" points="275.767,-314.8 456.233,-314.8 "/>
<text text-anchor="start" x="283.767" y="-296.8" font-family="Times,serif" font-size="14.00">id :integer</text>
<text text-anchor="start" x="283.767" y="-280" font-family="Times,serif" font-size="14.00">name :string</text>
<text text-anchor="start" x="283.767" y="-263.2" font-family="Times,serif" font-size="14.00">body :text</text>
<text text-anchor="start" x="283.767" y="-246.4" font-family="Times,serif" font-size="14.00">question_type_id :integer</text>
<text text-anchor="start" x="283.767" y="-229.6" font-family="Times,serif" font-size="14.00">created_at :datetime</text>
<text text-anchor="start" x="283.767" y="-212.8" font-family="Times,serif" font-size="14.00">updated_at :datetime</text>
<text text-anchor="start" x="283.767" y="-196" font-family="Times,serif" font-size="14.00">description :text</text>
<text text-anchor="start" x="283.767" y="-179.2" font-family="Times,serif" font-size="14.00">user_question_set_id :integer</text>
</g>
<!-- Question&#45;&gt;Answer -->
<g id="edge3" class="edge"><title>Question&#45;&gt;Answer</title>
<path fill="none" stroke="#86ae3b" d="M366,-164.094C366,-157.797 366,-151.487 366,-145.279"/>
<ellipse fill="none" stroke="#86ae3b" cx="366" cy="-168.335" rx="4" ry="4"/>
<polygon fill="#86ae3b" stroke="#86ae3b" points="366,-144.95 370.5,-134.95 366,-139.95 366,-134.95 366,-134.95 366,-134.95 366,-139.95 361.5,-134.95 366,-144.95 366,-144.95"/>
</g>
<!-- User -->
<g id="node5" class="node"><title>User</title>
<path fill="none" stroke="black" d="M379.722,-888.8C379.722,-888.8 560.278,-888.8 560.278,-888.8 566.278,-888.8 572.278,-894.8 572.278,-900.8 572.278,-900.8 572.278,-1447.2 572.278,-1447.2 572.278,-1453.2 566.278,-1459.2 560.278,-1459.2 560.278,-1459.2 379.722,-1459.2 379.722,-1459.2 373.722,-1459.2 367.722,-1453.2 367.722,-1447.2 367.722,-1447.2 367.722,-900.8 367.722,-900.8 367.722,-894.8 373.722,-888.8 379.722,-888.8"/>
<text text-anchor="middle" x="470" y="-1441.2" font-family="Times,serif" font-size="14.00">User</text>
<polyline fill="none" stroke="black" points="367.722,-1434.4 572.278,-1434.4 "/>
<text text-anchor="start" x="375.722" y="-1416.4" font-family="Times,serif" font-size="14.00">id :integer</text>
<text text-anchor="start" x="375.722" y="-1399.6" font-family="Times,serif" font-size="14.00">first_name :string</text>
<text text-anchor="start" x="375.722" y="-1382.8" font-family="Times,serif" font-size="14.00">last_name :string</text>
<text text-anchor="start" x="375.722" y="-1366" font-family="Times,serif" font-size="14.00">email :string</text>
<text text-anchor="start" x="375.722" y="-1349.2" font-family="Times,serif" font-size="14.00">encrypted_password :string</text>
<text text-anchor="start" x="375.722" y="-1332.4" font-family="Times,serif" font-size="14.00">reset_password_token :string</text>
<text text-anchor="start" x="375.722" y="-1315.6" font-family="Times,serif" font-size="14.00">avatar_uid :string</text>
<text text-anchor="start" x="375.722" y="-1298.8" font-family="Times,serif" font-size="14.00">avatar_name :string</text>
<text text-anchor="start" x="375.722" y="-1282" font-family="Times,serif" font-size="14.00">reset_password_sent_at :datetime</text>
<text text-anchor="start" x="375.722" y="-1265.2" font-family="Times,serif" font-size="14.00">remember_created_at :datetime</text>
<text text-anchor="start" x="375.722" y="-1248.4" font-family="Times,serif" font-size="14.00">sign_in_count :integer</text>
<text text-anchor="start" x="375.722" y="-1231.6" font-family="Times,serif" font-size="14.00">current_sign_in_at :datetime</text>
<text text-anchor="start" x="375.722" y="-1214.8" font-family="Times,serif" font-size="14.00">last_sign_in_at :datetime</text>
<text text-anchor="start" x="375.722" y="-1198" font-family="Times,serif" font-size="14.00">current_sign_in_ip :string</text>
<text text-anchor="start" x="375.722" y="-1181.2" font-family="Times,serif" font-size="14.00">last_sign_in_ip :string</text>
<text text-anchor="start" x="375.722" y="-1164.4" font-family="Times,serif" font-size="14.00">created_at :datetime</text>
<text text-anchor="start" x="375.722" y="-1147.6" font-family="Times,serif" font-size="14.00">updated_at :datetime</text>
<text text-anchor="start" x="375.722" y="-1130.8" font-family="Times,serif" font-size="14.00">authentication_token :string</text>
<text text-anchor="start" x="375.722" y="-1114" font-family="Times,serif" font-size="14.00">confirmation_token :string</text>
<text text-anchor="start" x="375.722" y="-1097.2" font-family="Times,serif" font-size="14.00">confirmed_at :datetime</text>
<text text-anchor="start" x="375.722" y="-1080.4" font-family="Times,serif" font-size="14.00">confirmation_sent_at :datetime</text>
<text text-anchor="start" x="375.722" y="-1063.6" font-family="Times,serif" font-size="14.00">unconfirmed_email :string</text>
<text text-anchor="start" x="375.722" y="-1046.8" font-family="Times,serif" font-size="14.00">email_validation_token :string</text>
<text text-anchor="start" x="375.722" y="-1030" font-family="Times,serif" font-size="14.00">country_code :string</text>
<text text-anchor="start" x="375.722" y="-1013.2" font-family="Times,serif" font-size="14.00">zip :string</text>
<text text-anchor="start" x="375.722" y="-996.4" font-family="Times,serif" font-size="14.00">signup_finalized_at :datetime</text>
<text text-anchor="start" x="375.722" y="-979.6" font-family="Times,serif" font-size="14.00">born_at :date</text>
<text text-anchor="start" x="375.722" y="-962.8" font-family="Times,serif" font-size="14.00">city :string</text>
<text text-anchor="start" x="375.722" y="-946" font-family="Times,serif" font-size="14.00">state :string</text>
<text text-anchor="start" x="375.722" y="-929.2" font-family="Times,serif" font-size="14.00">address1 :string</text>
<text text-anchor="start" x="375.722" y="-912.4" font-family="Times,serif" font-size="14.00">cell_phone :string</text>
<text text-anchor="start" x="375.722" y="-895.6" font-family="Times,serif" font-size="14.00">usa_epay_customer_id :integer</text>
</g>
<!-- User&#45;&gt;Answer -->
<g id="edge7" class="edge"><title>User&#45;&gt;Answer</title>
<path fill="none" stroke="#a76f76" d="M559.999,-880.646C593.821,-728.575 615.208,-540.566 574,-376 549.03,-276.281 525.41,-255.174 465,-172 457.334,-161.445 448.64,-150.88 439.663,-140.754"/>
<ellipse fill="none" stroke="#a76f76" cx="559.049" cy="-884.872" rx="4.00001" ry="4.00001"/>
<polygon fill="#a76f76" stroke="#a76f76" points="439.457,-140.526 436.095,-130.088 436.106,-136.815 432.755,-133.104 432.755,-133.104 432.755,-133.104 436.106,-136.815 429.415,-136.12 439.457,-140.526 439.457,-140.526"/>
</g>
<!-- UserEnrollment -->
<g id="node6" class="node"><title>UserEnrollment</title>
<path fill="none" stroke="black" d="M331.495,-717.2C331.495,-717.2 440.505,-717.2 440.505,-717.2 446.505,-717.2 452.505,-723.2 452.505,-729.2 452.505,-729.2 452.505,-838.8 452.505,-838.8 452.505,-844.8 446.505,-850.8 440.505,-850.8 440.505,-850.8 331.495,-850.8 331.495,-850.8 325.495,-850.8 319.495,-844.8 319.495,-838.8 319.495,-838.8 319.495,-729.2 319.495,-729.2 319.495,-723.2 325.495,-717.2 331.495,-717.2"/>
<text text-anchor="middle" x="386" y="-832.8" font-family="Times,serif" font-size="14.00">UserEnrollment</text>
<polyline fill="none" stroke="black" points="319.495,-826 452.505,-826 "/>
<text text-anchor="start" x="327.495" y="-808" font-family="Times,serif" font-size="14.00">id :integer</text>
<text text-anchor="start" x="327.495" y="-791.2" font-family="Times,serif" font-size="14.00">user_id :integer</text>
<text text-anchor="start" x="327.495" y="-774.4" font-family="Times,serif" font-size="14.00">offering_id :integer</text>
<text text-anchor="start" x="327.495" y="-757.6" font-family="Times,serif" font-size="14.00">status :integer</text>
<text text-anchor="start" x="327.495" y="-740.8" font-family="Times,serif" font-size="14.00">created_at :datetime</text>
<text text-anchor="start" x="327.495" y="-724" font-family="Times,serif" font-size="14.00">updated_at :datetime</text>
</g>
<!-- User&#45;&gt;UserEnrollment -->
<g id="edge5" class="edge"><title>User&#45;&gt;UserEnrollment</title>
<path fill="none" stroke="#467e70" d="M406.696,-880.596C405.063,-873.052 403.488,-865.778 401.986,-858.842"/>
<ellipse fill="none" stroke="#467e70" cx="407.609" cy="-884.813" rx="4.00001" ry="4.00001"/>
<ellipse fill="#467e70" stroke="#467e70" cx="401.105" cy="-854.768" rx="4.00001" ry="4.00001"/>
</g>
<!-- UserQuestionSet -->
<g id="node7" class="node"><title>UserQuestionSet</title>
<path fill="none" stroke="black" d="M406.439,-461.2C406.439,-461.2 553.561,-461.2 553.561,-461.2 559.561,-461.2 565.561,-467.2 565.561,-473.2 565.561,-473.2 565.561,-582.8 565.561,-582.8 565.561,-588.8 559.561,-594.8 553.561,-594.8 553.561,-594.8 406.439,-594.8 406.439,-594.8 400.439,-594.8 394.439,-588.8 394.439,-582.8 394.439,-582.8 394.439,-473.2 394.439,-473.2 394.439,-467.2 400.439,-461.2 406.439,-461.2"/>
<text text-anchor="middle" x="480" y="-576.8" font-family="Times,serif" font-size="14.00">UserQuestionSet</text>
<polyline fill="none" stroke="black" points="394.439,-570 565.561,-570 "/>
<text text-anchor="start" x="402.439" y="-552" font-family="Times,serif" font-size="14.00">id :integer</text>
<text text-anchor="start" x="402.439" y="-535.2" font-family="Times,serif" font-size="14.00">user_id :integer</text>
<text text-anchor="start" x="402.439" y="-518.4" font-family="Times,serif" font-size="14.00">question_set_id :integer</text>
<text text-anchor="start" x="402.439" y="-501.6" font-family="Times,serif" font-size="14.00">created_at :datetime</text>
<text text-anchor="start" x="402.439" y="-484.8" font-family="Times,serif" font-size="14.00">updated_at :datetime</text>
<text text-anchor="start" x="402.439" y="-468" font-family="Times,serif" font-size="14.00">user_enrollment_id :integer</text>
</g>
<!-- User&#45;&gt;UserQuestionSet -->
<g id="edge6" class="edge"><title>User&#45;&gt;UserQuestionSet</title>
<path fill="none" stroke="#45ddac" d="M474.544,-880.344C476.133,-778.011 477.784,-671.692 478.848,-603.192"/>
<ellipse fill="none" stroke="#45ddac" cx="474.477" cy="-884.658" rx="4" ry="4"/>
<ellipse fill="#45ddac" stroke="#45ddac" cx="478.913" cy="-599.028" rx="4" ry="4"/>
</g>
<!-- UserEnrollment&#45;&gt;Offering -->
<g id="edge9" class="edge"><title>UserEnrollment&#45;&gt;Offering</title>
<path fill="none" stroke="#cd7399" d="M358.425,-709.274C355.935,-702.615 353.355,-695.717 350.721,-688.676"/>
<ellipse fill="none" stroke="#cd7399" cx="359.887" cy="-713.181" rx="4.00001" ry="4.00001"/>
<polygon fill="#cd7399" stroke="#cd7399" points="350.603,-688.361 351.315,-677.418 348.852,-683.677 347.1,-678.994 347.1,-678.994 347.1,-678.994 348.852,-683.677 342.885,-680.571 350.603,-688.361 350.603,-688.361"/>
</g>
<!-- UserEnrollment&#45;&gt;UserQuestionSet -->
<g id="edge10" class="edge"><title>UserEnrollment&#45;&gt;UserQuestionSet</title>
<path fill="none" stroke="#6945e5" d="M413.259,-709.343C425.408,-676.516 439.707,-637.878 451.947,-604.803"/>
<ellipse fill="none" stroke="#6945e5" cx="411.84" cy="-713.176" rx="4.00001" ry="4.00001"/>
<polygon fill="#6945e5" stroke="#6945e5" points="452.037,-604.561 459.728,-596.744 453.772,-599.872 455.507,-595.182 455.507,-595.182 455.507,-595.182 453.772,-599.872 451.287,-593.621 452.037,-604.561 452.037,-604.561"/>
</g>
<!-- UserQuestionSet&#45;&gt;Question -->
<g id="edge12" class="edge"><title>UserQuestionSet&#45;&gt;Question</title>
<path fill="none" stroke="#889a7a" d="M448.99,-453.556C435.412,-421.397 419.331,-383.309 404.956,-349.265"/>
<ellipse fill="none" stroke="#889a7a" cx="450.557" cy="-457.266" rx="4.00002" ry="4.00002"/>
<polygon fill="#889a7a" stroke="#889a7a" points="404.84,-348.99 405.096,-338.027 402.895,-344.384 400.951,-339.778 400.951,-339.778 400.951,-339.778 402.895,-344.384 396.805,-341.528 404.84,-348.99 404.84,-348.99"/>
</g>
<!-- ActiveRecord::Base -->
<g id="node8" class="node"><title>ActiveRecord::Base</title>
<ellipse fill="none" stroke="black" cx="313" cy="-1539" rx="88.2033" ry="18"/>
<text text-anchor="middle" x="313" y="-1533.4" font-family="Times,serif" font-size="14.00">ActiveRecord::Base</text>
</g>
<!-- ActiveRecord::Base&#45;&gt;Answer -->
<g id="edge1" class="edge"><title>ActiveRecord::Base&#45;&gt;Answer</title>
<path fill="none" stroke="black" d="M266.949,-1523.53C237.047,-1511.54 200.188,-1491.32 181,-1460 23.9892,-1203.69 139,-1085.58 139,-785 139,-785 139,-785 139,-527 139,-359.279 167.668,-307.142 267,-172 275.71,-160.15 285.697,-148.263 295.902,-136.992"/>
<polyline fill="none" stroke="black" points="299.369,-133.195 295.998,-136.887 "/>
</g>
<!-- ActiveRecord::Base&#45;&gt;Offering -->
<g id="edge2" class="edge"><title>ActiveRecord::Base&#45;&gt;Offering</title>
<path fill="none" stroke="black" d="M312.256,-1520.96C311.587,-1505.16 310.618,-1481 310,-1460 301.966,-1187.04 296.262,-868.952 293.311,-684.136"/>
<polyline fill="none" stroke="black" points="293.229,-678.98 293.309,-683.979 "/>
</g>
<!-- ActiveRecord::Base&#45;&gt;Question -->
<g id="edge4" class="edge"><title>ActiveRecord::Base&#45;&gt;Question</title>
<path fill="none" stroke="black" d="M308.205,-1520.77C303.971,-1505.05 297.884,-1481.11 294,-1460 250.231,-1222.12 84.3013,-590.535 196,-376 212.492,-344.325 241.7,-319.338 271.304,-300.609"/>
<polyline fill="none" stroke="black" points="275.674,-297.891 271.428,-300.532 "/>
</g>
<!-- ActiveRecord::Base&#45;&gt;User -->
<g id="edge8" class="edge"><title>ActiveRecord::Base&#45;&gt;User</title>
<path fill="none" stroke="black" d="M321.017,-1521.03C328.415,-1505.27 339.638,-1481.14 349,-1460 354.477,-1447.63 360.046,-1434.95 365.637,-1422.12"/>
<polyline fill="none" stroke="black" points="367.697,-1417.39 365.701,-1421.97 "/>
</g>
<!-- ActiveRecord::Base&#45;&gt;UserEnrollment -->
<g id="edge11" class="edge"><title>ActiveRecord::Base&#45;&gt;UserEnrollment</title>
<path fill="none" stroke="black" d="M313.049,-1520.79C313.508,-1445.4 317.934,-1136.91 359,-888 360.735,-877.482 363.059,-866.475 365.618,-855.735"/>
<polyline fill="none" stroke="black" points="366.809,-850.821 365.631,-855.681 "/>
</g>
<!-- ActiveRecord::Base&#45;&gt;UserQuestionSet -->
<g id="edge13" class="edge"><title>ActiveRecord::Base&#45;&gt;UserQuestionSet</title>
<path fill="none" stroke="black" d="M381.42,-1527.56C452.608,-1515.14 557.004,-1491.98 581,-1460 778.493,-1196.83 600.611,-767.919 517.43,-599.787"/>
<polyline fill="none" stroke="black" points="514.997,-594.889 517.222,-599.367 "/>
</g>
</g>
</svg>
